<svg width="24" height="24" viewBox="0 0 24 24" fill="black" xmlns="http://www.w3.org/2000/svg">
<path d="M16.365 1.43c0 1.14-.42 2.07-1.26 2.79-.84.72-1.81 1.13-2.91 1.23-.05-1.09.31-2.03 1.08-2.82.78-.8 1.8-1.23 3.09-1.2zM21.6 17.77c-.36.83-.79 1.58-1.29 2.24-.66.86-1.21 1.45-1.65 1.76-.66.49-1.36.74-2.13.76-.54 0-1.2-.15-1.99-.45-.79-.3-1.52-.44-2.19-.44-.7 0-1.45.15-2.25.44-.8.3-1.43.45-1.89.45-.75-.03-1.47-.28-2.16-.76-.49-.34-1.08-.97-1.77-1.89-.76-1.02-1.38-2.2-1.86-3.54-.52-1.49-.78-2.93-.78-4.33 0-1.6.35-2.98 1.05-4.15.55-.96 1.28-1.72 2.18-2.28.9-.57 1.88-.87 2.94-.9.58 0 1.34.17 2.28.51.93.34 1.53.52 1.8.52.2 0 .84-.2 1.93-.6 1.03-.37 1.9-.53 2.61-.48 1.93.16 3.38.97 4.35 2.44-1.72 1.05-2.58 2.53-2.58 4.43 0 1.48.53 2.71 1.59 3.69.47.43.99.76 1.56 1z"></path>
</svg>
