<svg width="32" height="32" viewBox="0 0 32 32" fill="none" xmlns="http://www.w3.org/2000/svg">
<path d="M25.3333 3.99992H19.76C19.2 2.45325 17.7333 1.33325 16 1.33325C14.2667 1.33325 12.8 2.45325 12.24 3.99992H6.66667C5.2 3.99992 4 5.19992 4 6.66658V25.3333C4 26.7999 5.2 27.9999 6.66667 27.9999H25.3333C26.8 27.9999 28 26.7999 28 25.3333V6.66658C28 5.19992 26.8 3.99992 25.3333 3.99992ZM16 3.99992C16.7333 3.99992 17.3333 4.59992 17.3333 5.33325C17.3333 6.06659 16.7333 6.66658 16 6.66658C15.2667 6.66658 14.6667 6.06659 14.6667 5.33325C14.6667 4.59992 15.2667 3.99992 16 3.99992ZM17.3333 22.6666H10.6667C9.93333 22.6666 9.33333 22.0666 9.33333 21.3333C9.33333 20.5999 9.93333 19.9999 10.6667 19.9999H17.3333C18.0667 19.9999 18.6667 20.5999 18.6667 21.3333C18.6667 22.0666 18.0667 22.6666 17.3333 22.6666ZM21.3333 17.3333H10.6667C9.93333 17.3333 9.33333 16.7333 9.33333 15.9999C9.33333 15.2666 9.93333 14.6666 10.6667 14.6666H21.3333C22.0667 14.6666 22.6667 15.2666 22.6667 15.9999C22.6667 16.7333 22.0667 17.3333 21.3333 17.3333ZM21.3333 11.9999H10.6667C9.93333 11.9999 9.33333 11.3999 9.33333 10.6666C9.33333 9.93325 9.93333 9.33325 10.6667 9.33325H21.3333C22.0667 9.33325 22.6667 9.93325 22.6667 10.6666C22.6667 11.3999 22.0667 11.9999 21.3333 11.9999Z" fill="#0B0B36" fill-opacity="0.5"/>
</svg>
