<svg width="32" height="32" fill="none" xmlns="http://www.w3.org/2000/svg"><rect width="32" height="32" rx="16" fill="#FFCA08"/><path fill-rule="evenodd" clip-rule="evenodd" d="M10.014 17.469v6.112h5.914c2.354 0 4.281-.722 5.783-2.166 1.517-1.444 2.275-3.249 2.275-5.415 0-2.18-.751-3.986-2.253-5.415-1.502-1.444-3.437-2.166-5.805-2.166h-5.914v6.112H6.313v2.938h3.701Zm3.336 0v3.101h2.578c1.372 0 2.476-.418 3.314-1.256.837-.852 1.256-1.957 1.256-3.314 0-1.343-.426-2.44-1.278-3.293-.837-.852-1.935-1.278-3.292-1.278H13.35v3.102H16v2.938h-2.65Z" fill="#fff"/></svg>