<svg width="32" height="32" viewBox="0 0 32 32" fill="none" xmlns="http://www.w3.org/2000/svg">
<path d="M22.1213 12H20.0013V5.33333C20.0013 4.6 19.4013 4 18.668 4H13.3346C12.6013 4 12.0013 4.6 12.0013 5.33333V12H9.8813C8.69464 12 8.09464 13.44 8.93464 14.28L15.0546 20.4C15.5746 20.92 16.4146 20.92 16.9346 20.4L23.0546 14.28C23.8946 13.44 23.308 12 22.1213 12ZM6.66797 25.3333C6.66797 26.0667 7.26797 26.6667 8.0013 26.6667H24.0013C24.7346 26.6667 25.3346 26.0667 25.3346 25.3333C25.3346 24.6 24.7346 24 24.0013 24H8.0013C7.26797 24 6.66797 24.6 6.66797 25.3333Z" fill="#0B0B36" fill-opacity="0.5"/>
</svg>
