<svg width="24" height="29" viewBox="0 0 24 29" fill="none" xmlns="http://www.w3.org/2000/svg">
<path fill-rule="evenodd" clip-rule="evenodd" d="M17.1439 0.468262C17.2698 2.11161 16.7501 3.73928 15.6952 5.00562C14.6718 6.27853 13.1211 7.01172 11.4878 6.99491C11.384 5.39888 11.9188 3.82702 12.9745 2.62554C14.0436 1.40778 15.5323 0.63753 17.1439 0.468262ZM22.3093 10.1243C20.4305 11.2793 19.2745 13.3162 19.246 15.5214C19.2487 18.0163 20.7428 20.2679 23.0407 21.2398C22.5988 22.6754 21.9326 24.0321 21.0669 25.2597C19.9043 26.9988 18.6854 28.6978 16.7507 28.7292C15.8306 28.7504 15.2094 28.4858 14.5622 28.2101C13.8871 27.9225 13.1837 27.6229 12.0828 27.6229C10.9154 27.6229 10.1804 27.9322 9.47155 28.2305C8.85898 28.4883 8.26591 28.7379 7.4301 28.7726C5.58758 28.8408 4.17947 26.9164 2.97462 25.1936C0.566484 21.6754 -1.30865 15.2786 1.20523 10.9261C2.38575 8.80479 4.59301 7.45866 7.01945 7.38026C8.06444 7.35877 9.06718 7.76154 9.94632 8.11466C10.6186 8.38471 11.2187 8.62573 11.71 8.62573C12.142 8.62573 12.7253 8.39423 13.405 8.12443C14.4759 7.69944 15.7861 7.17943 17.1213 7.31958C19.196 7.38449 21.1187 8.42391 22.3093 10.1243Z" fill="white"/>
</svg>
