<svg width="111" height="32" fill="none" xmlns="http://www.w3.org/2000/svg"><path fill-rule="evenodd" clip-rule="evenodd" d="M107.507 8.434C106.118 7.481 104.016 7 101.26 7h-7.216L91.36 21.588h-9.454l.608-3.31h5.694l.675-3.717-5.691.008.609-3.295h5.866l.78-4.273H78.536L75.989 20.84h-4.372L74.181 7h-6.227l-2.547 13.838H61.15L63.715 7h-6.224L54.805 21.59h-9.522l.602-3.31h5.718l.676-3.696-5.713-.006.606-3.302h5.932L53.88 7H16.758l-2.113 11.56L10.437 7h-6.46L.499 25.866h6.17l2.105-11.879 4.083 11.88H34.97l2.689-14.594h3.459l-2.69 14.593h58.185l1.687-9.211 2.729 9.211h6.173l-2.828-7.527.647-.14c1.425-.305 2.537-.962 3.31-1.947.774-.994 1.168-2.27 1.168-3.804 0-1.785-.652-3.098-1.994-4.015l.002.001ZM29.601 21.59h-9.445l.61-3.31h5.924l.672-3.728h-5.867l.565-3.275h9.43L29.6 21.589h.002Zm70.067-5.709c1.231 0 2.131-.211 2.752-.646h-.002c.467-.328 1.023-.966 1.024-2.154 0-.982-.477-1.501-.879-1.764-.514-.335-1.259-.498-2.281-.498h-.898l-.936 5.062h1.22Z" fill="#83BA3B"/></svg>