<svg width="72" height="32" fill="none" xmlns="http://www.w3.org/2000/svg"><path fill-rule="evenodd" clip-rule="evenodd" d="M8.954 13.605h-.001c-.745-.05-2.467-.162-2.467-1.726 0-1.887 2.481-1.887 3.412-1.887 1.636 0 3.756.487 5.27.943 0 0 .844.3 1.562.608l.067.018V6.392l-.092-.027c-1.786-.63-3.863-1.236-7.714-1.236C2.352 5.13 0 9.028 0 12.368c0 1.925.818 6.457 8.422 6.98h.007c.65.04 2.348.144 2.348 1.755 0 1.334-1.4 2.12-3.756 2.12-2.58 0-5.085-.662-6.606-1.292v5.323c2.277.602 4.843.903 7.852.903 6.491 0 9.399-3.69 9.399-7.345 0-4.145-3.254-6.839-8.712-7.207Zm19.625-2.376-.011.03-.021.055c-.218.572-1.18 3.1-3.323 5.716V5.13l-6.078 1.21v21.572h6.078v-6.668c1.76 2.66 2.63 6.668 2.63 6.668h7.28c-.72-3.018-3.87-8.582-3.87-8.582 2.826-3.613 4.068-7.463 4.265-8.101h-6.95Zm22.24-1.58a2.914 2.914 0 0 0 2.905-2.925c0-1.616-1.3-2.927-2.904-2.927-1.602 0-2.901 1.311-2.901 2.927s1.3 2.926 2.9 2.926Zm-14.47 8.887c0-4.894 2.764-7.356 8.208-7.532 0 0 .981-.038 1.562.086v4.87c-3.45.12-3.83 1.376-3.83 4.306v7.646h-5.94v-9.376Zm17.418 9.376h-5.891V11.248h5.89v16.664Zm11.091-21.72v21.72h5.892V5.129l-5.892 1.062Zm-2.71-1.063-5.886 1.062v21.72h5.886V5.13Z" fill="#862165"/></svg>