<svg width="32" height="32" fill="none" xmlns="http://www.w3.org/2000/svg"><rect width="32" height="32" rx="16" fill="#00AD41"/><path d="M6.924 7.625H25.07V11H6.924V7.625Z" fill="#fff"/><path fill-rule="evenodd" clip-rule="evenodd" d="M16 20.5c5.77 0 10.448-1.315 10.448-2.938 0-1.622-4.678-2.937-10.448-2.937-5.77 0-10.448 1.315-10.448 2.938C5.552 19.184 10.23 20.5 16 20.5Zm.016-.778c5 0 9.054-1.002 9.054-2.238s-4.053-2.238-9.054-2.238-9.055 1.002-9.055 2.238 4.054 2.238 9.055 2.238Z" fill="#fff"/><path fill="#fff" d="M14.31 25.771v-5.584h3.375v5.584zM14.31 18.656V7.625h3.375v11.031H14.31Z"/></svg>