<svg width="33" height="33" viewBox="0 0 33 33" fill="none" xmlns="http://www.w3.org/2000/svg">
<path fill-rule="evenodd" clip-rule="evenodd" d="M22.3197 8.96297H27.6531C29.1331 8.96297 30.3197 10.1496 30.3197 11.6296V26.2963C30.3197 27.7763 29.1331 28.963 27.6531 28.963H6.31974C4.83974 28.963 3.65308 27.7763 3.65308 26.2963L3.66641 11.6296C3.66641 10.1496 4.83974 8.96297 6.31974 8.96297H11.6531V6.29631C11.6531 4.81631 12.8397 3.62964 14.3197 3.62964H19.6531C21.1331 3.62964 22.3197 4.81631 22.3197 6.29631V8.96297ZM14.3197 8.96297H19.6531V6.29631H14.3197V8.96297ZM16.1763 20.6171V20.8671H17.7939V20.6906C17.7939 20.2495 17.9115 19.8672 18.1468 19.5437C18.3919 19.2104 18.6712 18.8917 18.9849 18.5878C19.2496 18.333 19.5045 18.0732 19.7496 17.8085C20.0045 17.5438 20.2104 17.2546 20.3672 16.9409C20.5339 16.6174 20.6172 16.2547 20.6172 15.8527C20.6172 15.3528 20.4897 14.8871 20.2349 14.4558C19.98 14.0244 19.6075 13.6764 19.1173 13.4117C18.6369 13.1372 18.0585 13 17.3821 13C16.7841 13 16.2449 13.1176 15.7646 13.3529C15.294 13.5784 14.9019 13.897 14.5882 14.3087C14.2843 14.7107 14.0882 15.1812 14 15.7204L15.544 16.088C15.6322 15.6175 15.8381 15.2449 16.1616 14.9705C16.4949 14.6862 16.892 14.544 17.3527 14.544C17.686 14.544 17.9654 14.6077 18.1909 14.7352C18.4262 14.8528 18.6026 15.0146 18.7203 15.2204C18.8379 15.4165 18.8967 15.6371 18.8967 15.8822C18.8967 16.2743 18.7644 16.6174 18.4997 16.9115C18.2448 17.2056 17.9507 17.5095 17.6174 17.8232C17.3821 18.0487 17.1517 18.2987 16.9263 18.5731C16.7106 18.8378 16.5292 19.1368 16.3822 19.4701C16.2449 19.8034 16.1763 20.1858 16.1763 20.6171ZM16.1763 22.2199V24.1316H17.8674V22.2199H16.1763Z" fill="#0B0B36" fill-opacity="0.5"/>
</svg>
